<svg xmlns="http://www.w3.org/2000/svg" viewBox="0 0 54 64" role="img" aria-labelledby="title desc"><title id="title">Znak Bank24</title><desc id="desc">Autorski znak B: dwa otwarte obiegi i wspólny pion. Logotyp Bank24 z literami w krzywych, na bazie IBM Plex Sans, SIL Open Font License.</desc><path fill="#152b4b" d="M3 5H12V59H3Z"/><path fill="#152b4b" d="M18 5H28C40 5 47 11 47 20C47 29 40 35 28 35H18V27H28C34 27 38 25 38 20C38 15 34 13 28 13H18Z"/><path fill="#152b4b" d="M18 35H30C36 35 40 38 40 43C40 48 36 51 30 51H18V59H30C42 59 49 53 49 43C49 34 43 28 34 27H18Z"/></svg>